# xmcd
#
# Track frame offsets: 
#        150
#        14000
#        30409
#        46240
#        58928
#        69519
#        76130
#        85439
#        97725
#        110475
#        122419
#        137151
#        155166
#
# Disc length: 3254 seconds
#
# Revision: 0
# Processed by: cddbd v1.5.2PL0 Copyright (c) Steve Scherf et al.
# Submitted via: ExactAudioCopy v0.99pb4
#
DISCID=a60cb40d
DTITLE=Евгений Кравкль - Живые дожди Парижа
DYEAR=2010
DGENRE=Chanson
TTITLE0=Мост Мирабо
TTITLE1=На днях повалит снег
TTITLE2=О, гитара
TTITLE3=Молодости праздной
TTITLE4=Вино из города Марей
TTITLE5=Пора домой
TTITLE6=Как только входит бог вина
TTITLE7=Последние стихи Ронсара
TTITLE8=Ко мне, друзья мои
TTITLE9=Ночи зимние
TTITLE10=Песенка
TTITLE11=Калейдоскоп
TTITLE12=Пьяный корабль
EXTD=
EXTT0=
EXTT1=
EXTT2=
EXTT3=
EXTT4=
EXTT5=
EXTT6=
EXTT7=
EXTT8=
EXTT9=
EXTT10=
EXTT11=
EXTT12=
PLAYORDER=
